# xmcd
#
# Track frame offsets:
# 150
# 18285
# 33912
# 53352
# 72812
# 91235
# 112787
# 129587
# 145660
# 161327
# 176082
# 191562
# 213797
# 230697
#
# Disc length: 3274 seconds
#
#
# Revision: 1
# Processed by: cddbd v1.5.1PL0 Copyright (c) Steve Scherf et al.
# Submitted via: FreeRIP 2.40 
#
DISCID=aa0cc80e
DTITLE=Chitaozinho and Xororó - Na Cidade - Nascemos para Cantar - Na Cidade
DYEAR=2005
DGENRE=Sertanejo
TTITLE0=Brincar de Ser Feliz
TTITLE1=Ai, Maria (My Maria)
TTITLE2=A Minha Vida (Comme D'habitude) (My way)
TTITLE3=Meu Senhor (My Sweet Lord)
TTITLE4=Cheia de Charme
TTITLE5=Os Meninos do Brasil
TTITLE6=Eu Quero Bis
TTITLE7=Se Deus me Ouvisse (Ao Vivo)
TTITLE8=Gente Humilde
TTITLE9=Brigas
TTITLE10=Até que te Conheci (Hasta Que Te Conoci)
TTITLE11=O Homem de Nazareth
TTITLE12=Guadalupe (versao espanhol)
TTITLE13=Planeta Azul
EXTD=by Tosh2005
EXTT0=
EXTT1=
EXTT2=
EXTT3=
EXTT4=
EXTT5=
EXTT6=
EXTT7=
EXTT8=
EXTT9=
EXTT10=
EXTT11=
EXTT12=
EXTT13=
PLAYORDER=
